<svg id="svg" version="1.1" xmlns="http://www.w3.org/2000/svg" xmlns:xlink="http://www.w3.org/1999/xlink" width="400" height="141.46060954571593" viewBox="0, 0, 400,141.46060954571593"><g id="svgg"><path id="path0" d="M0.000 70.667 L 0.000 141.333 200.000 141.333 L 400.000 141.333 400.000 70.667 L 400.000 0.000 200.000 0.000 L 0.000 0.000 0.000 70.667 M172.333 22.917 C 172.333 33.342,172.016 32.336,174.854 30.914 C 176.907 29.885,177.000 29.885,177.000 30.927 L 177.000 31.667 198.333 31.667 L 219.667 31.667 219.667 30.833 C 219.667 29.805,219.613 29.803,221.833 30.917 C 222.839 31.421,223.775 31.833,223.914 31.833 C 224.137 31.833,224.167 30.809,224.167 23.239 C 224.167 17.634,224.227 14.533,224.339 14.322 C 224.509 14.004,225.580 14.000,303.750 14.000 C 381.920 14.000,382.991 14.004,383.161 14.322 C 383.491 14.940,383.391 50.160,383.058 50.529 C 382.612 51.021,224.603 51.004,224.339 50.511 C 224.227 50.301,224.167 47.170,224.167 41.500 L 224.167 32.811 223.792 32.928 C 223.585 32.993,222.636 33.446,221.683 33.934 C 219.708 34.944,219.667 34.942,219.667 33.823 L 219.667 33.000 208.667 33.000 L 197.667 33.000 197.667 46.917 L 197.667 60.833 198.333 60.833 C 198.700 60.833,199.000 60.882,199.000 60.942 C 199.000 61.118,198.095 62.908,197.952 63.013 C 197.880 63.067,197.778 63.377,197.725 63.704 L 197.629 64.298 198.469 64.478 C 205.328 65.949,205.319 76.599,198.458 77.448 C 197.463 77.572,197.426 77.878,198.228 79.371 C 199.140 81.069,199.146 81.167,198.345 81.167 L 197.667 81.167 197.667 94.250 L 197.667 107.333 208.658 107.333 L 219.650 107.333 219.700 106.410 L 219.750 105.486 221.750 106.490 C 222.850 107.042,223.844 107.495,223.958 107.497 C 224.122 107.499,224.167 105.665,224.167 98.870 C 224.167 91.330,224.199 90.194,224.426 89.870 L 224.686 89.500 303.750 89.500 L 382.814 89.500 383.074 89.870 C 383.483 90.455,383.467 125.742,383.058 126.195 C 382.791 126.490,380.102 126.500,303.734 126.500 L 224.686 126.500 224.426 126.130 C 224.199 125.806,224.167 124.670,224.167 117.130 C 224.167 110.207,224.124 108.500,223.952 108.500 C 223.834 108.500,222.916 108.912,221.911 109.416 C 219.634 110.558,219.667 110.558,219.667 109.417 L 219.667 108.500 198.333 108.500 L 177.000 108.500 177.000 109.417 C 177.000 110.563,177.019 110.563,174.742 109.417 C 173.741 108.913,172.790 108.500,172.628 108.500 C 172.350 108.500,172.333 109.001,172.333 117.327 C 172.333 125.884,172.323 126.160,172.011 126.327 C 171.513 126.594,13.967 126.567,13.700 126.300 C 13.353 125.953,13.416 89.734,13.764 89.601 C 14.108 89.469,171.725 89.469,172.070 89.601 C 172.306 89.692,172.333 90.640,172.333 98.601 C 172.333 106.965,172.351 107.500,172.625 107.499 C 172.785 107.499,173.727 107.086,174.716 106.582 C 176.964 105.439,177.000 105.438,177.000 106.500 L 177.000 107.333 186.667 107.333 L 196.333 107.333 196.333 94.250 L 196.333 81.167 195.843 81.167 C 195.123 81.167,195.111 80.988,195.753 79.779 C 196.574 78.231,196.553 77.573,195.678 77.456 C 194.100 77.244,192.043 75.697,191.194 74.083 C 189.174 70.242,191.306 65.560,195.563 64.488 C 196.547 64.240,196.585 63.788,195.750 62.216 C 195.031 60.861,195.031 60.833,195.750 60.833 L 196.333 60.833 196.333 46.917 L 196.333 33.000 186.667 33.000 L 177.000 33.000 177.000 33.823 C 177.000 34.931,177.027 34.931,174.750 33.818 C 173.650 33.280,172.656 32.839,172.542 32.837 C 172.378 32.834,172.333 34.722,172.333 41.732 C 172.333 49.693,172.306 50.642,172.070 50.732 C 171.725 50.864,14.108 50.864,13.764 50.732 C 13.488 50.627,13.338 14.385,13.611 14.111 C 13.672 14.050,49.410 14.000,93.028 14.000 L 172.333 14.000 172.333 22.917 M14.577 15.375 C 14.533 15.490,14.517 23.233,14.540 32.583 L 14.583 49.583 92.958 49.625 L 171.333 49.667 171.333 32.417 L 171.333 15.167 92.995 15.167 C 30.477 15.167,14.640 15.209,14.577 15.375 M225.500 32.417 L 225.500 49.667 303.750 49.667 L 382.000 49.667 382.000 32.417 L 382.000 15.167 303.750 15.167 L 225.500 15.167 225.500 32.417 M195.960 65.347 C 193.836 65.659,191.847 67.592,191.512 69.671 C 191.424 70.220,191.313 70.732,191.265 70.808 C 190.873 71.444,192.205 74.400,193.314 75.356 C 194.895 76.717,197.905 77.113,199.667 76.191 C 204.580 73.618,203.486 66.217,198.061 65.329 C 197.523 65.241,197.046 65.177,197.000 65.188 C 196.954 65.199,196.486 65.270,195.960 65.347 M195.000 69.270 L 195.000 70.500 197.083 70.500 L 199.167 70.500 199.167 69.184 C 199.167 67.862,199.328 67.521,199.811 67.819 C 200.206 68.063,199.987 74.083,199.583 74.083 C 199.283 74.083,199.245 73.956,199.201 72.792 L 199.153 71.500 197.076 71.500 L 195.000 71.500 194.997 72.625 C 194.995 73.861,194.840 74.269,194.433 74.113 C 194.093 73.982,194.027 68.206,194.363 67.871 C 194.765 67.468,195.000 67.984,195.000 69.270 M14.500 108.000 L 14.500 125.167 92.917 125.167 L 171.333 125.167 171.333 108.000 L 171.333 90.833 92.917 90.833 L 14.500 90.833 14.500 108.000 M225.500 108.000 L 225.500 125.167 303.750 125.167 L 382.000 125.167 382.000 108.000 L 382.000 90.833 303.750 90.833 L 225.500 90.833 225.500 108.000 " stroke="none" fill="#fbfbfb" fill-rule="evenodd"></path><path id="path1" d="M13.778 14.278 C 13.717 14.339,13.667 22.514,13.667 32.444 L 13.667 50.500 92.915 50.500 L 172.164 50.500 172.207 41.625 C 172.257 31.229,171.956 32.184,174.750 33.576 L 176.583 34.489 176.667 33.703 L 176.750 32.917 186.708 32.874 L 196.667 32.831 196.667 46.915 L 196.667 61.000 196.083 61.000 C 195.374 61.000,195.373 61.025,196.007 62.261 C 196.976 64.149,196.944 64.664,195.861 64.668 C 195.617 64.669,195.022 64.854,194.539 65.079 C 188.657 67.817,189.573 75.721,195.958 77.334 C 196.855 77.561,196.871 77.833,196.083 79.477 C 195.381 80.942,195.385 80.801,196.042 80.864 L 196.583 80.917 196.626 94.156 C 196.660 104.638,196.625 107.423,196.459 107.529 C 196.097 107.759,177.099 107.699,176.867 107.467 C 176.757 107.357,176.667 106.982,176.667 106.633 C 176.667 105.831,176.721 105.823,174.417 106.948 C 172.819 107.728,172.448 107.854,172.324 107.657 C 172.237 107.520,172.171 103.656,172.169 98.714 C 172.167 90.282,172.157 90.006,171.844 89.839 C 171.332 89.565,14.320 89.601,13.947 89.875 C 13.683 90.069,13.667 91.309,13.707 108.083 L 13.750 126.083 92.917 126.083 L 172.083 126.083 172.170 117.167 C 172.218 112.263,172.274 108.231,172.295 108.208 C 172.415 108.077,172.876 108.259,174.515 109.083 C 176.710 110.188,176.667 110.185,176.667 109.250 L 176.667 108.500 198.333 108.500 L 220.000 108.500 220.000 109.250 C 220.000 110.182,219.931 110.187,222.109 109.086 C 223.103 108.583,224.048 108.171,224.208 108.169 C 224.483 108.167,224.500 108.705,224.500 117.167 L 224.500 126.167 303.750 126.167 L 383.000 126.167 383.000 108.018 C 383.000 91.622,382.975 89.859,382.736 89.768 C 382.392 89.636,225.108 89.636,224.764 89.768 C 224.528 89.858,224.500 90.814,224.500 98.851 C 224.500 106.324,224.462 107.833,224.273 107.833 C 224.148 107.833,223.135 107.385,222.023 106.838 L 220.000 105.842 220.000 106.567 C 220.000 107.735,220.661 107.673,208.565 107.626 L 197.583 107.583 197.583 94.250 L 197.583 80.917 198.125 80.864 C 198.786 80.801,198.790 80.903,198.074 79.481 C 197.248 77.841,197.316 77.483,198.500 77.243 C 199.746 76.990,200.731 76.453,201.648 75.526 C 205.193 71.945,203.377 65.725,198.500 64.743 C 197.304 64.503,197.229 64.111,198.071 62.480 C 198.798 61.069,198.800 61.034,198.125 60.969 L 197.583 60.917 197.541 46.874 L 197.498 32.831 208.707 32.874 L 219.917 32.917 219.967 33.708 C 219.995 34.144,220.036 34.500,220.057 34.500 C 220.078 34.500,220.918 34.088,221.923 33.584 C 222.928 33.080,223.919 32.667,224.125 32.667 L 224.500 32.667 224.500 41.583 L 224.500 50.500 303.751 50.500 L 383.001 50.500 382.959 32.375 L 382.917 14.250 303.750 14.250 L 224.583 14.250 224.540 23.208 C 224.499 31.786,224.484 32.167,224.190 32.167 C 224.021 32.167,223.042 31.754,222.015 31.250 C 220.988 30.746,220.118 30.333,220.083 30.333 C 220.047 30.333,219.995 30.690,219.967 31.125 L 219.917 31.917 198.427 31.959 C 181.345 31.993,176.910 31.958,176.804 31.792 C 176.731 31.677,176.671 31.302,176.669 30.958 C 176.666 30.187,176.849 30.161,174.637 31.250 C 172.991 32.060,172.428 32.271,172.295 32.125 C 172.274 32.102,172.218 28.071,172.170 23.167 L 172.083 14.250 92.986 14.208 C 49.483 14.185,13.839 14.216,13.778 14.278 M171.399 15.097 C 171.531 15.442,171.531 49.225,171.399 49.570 C 171.307 49.810,164.235 49.833,92.899 49.833 L 14.500 49.833 14.500 32.444 C 14.500 22.881,14.550 15.006,14.611 14.944 C 14.886 14.670,171.293 14.822,171.399 15.097 M382.070 14.934 C 382.308 15.026,382.333 16.723,382.333 32.434 L 382.333 49.833 303.750 49.833 L 225.167 49.833 225.167 32.431 C 225.167 18.664,225.210 15.010,225.375 14.944 C 225.675 14.823,381.754 14.813,382.070 14.934 M198.592 65.139 C 198.679 65.216,199.111 65.411,199.552 65.574 C 201.607 66.330,203.483 69.485,203.070 71.487 C 202.321 75.115,200.340 76.878,197.000 76.889 C 190.885 76.910,188.890 68.461,194.347 65.657 C 195.512 65.058,198.136 64.738,198.592 65.139 M194.371 70.945 C 194.404 73.064,194.473 73.908,194.618 73.956 C 194.762 74.004,194.833 73.629,194.868 72.637 L 194.917 71.250 197.083 71.250 L 199.250 71.250 199.333 72.570 C 199.387 73.415,199.492 73.915,199.625 73.959 C 199.787 74.012,199.833 73.348,199.833 71.000 C 199.833 68.652,199.787 67.988,199.625 68.041 C 199.492 68.085,199.387 68.585,199.333 69.430 L 199.250 70.750 197.042 70.797 L 194.833 70.843 194.833 69.422 C 194.833 68.259,194.787 68.000,194.579 68.000 C 194.360 68.000,194.332 68.399,194.371 70.945 M171.399 90.764 C 171.531 91.108,171.531 124.892,171.399 125.236 C 171.307 125.476,164.235 125.500,92.899 125.500 L 14.500 125.500 14.500 108.000 L 14.500 90.500 92.899 90.500 C 164.235 90.500,171.307 90.524,171.399 90.764 M382.292 108.042 L 382.335 125.500 303.751 125.500 L 225.167 125.500 225.167 108.111 C 225.167 98.547,225.217 90.672,225.278 90.611 C 225.339 90.550,260.683 90.518,303.820 90.541 L 382.250 90.583 382.292 108.042 " stroke="none" fill="#606060" fill-rule="evenodd"></path><path id="path2" d="M53.361 14.125 C 75.056 14.148,110.606 14.148,132.361 14.125 C 154.117 14.102,136.367 14.083,92.917 14.083 C 49.467 14.083,31.667 14.102,53.361 14.125 M264.195 14.125 C 285.889 14.148,321.439 14.148,343.195 14.125 C 364.950 14.102,347.200 14.083,303.750 14.083 C 260.300 14.083,242.500 14.102,264.195 14.125 M172.167 23.050 L 172.250 31.917 172.293 23.177 C 172.317 18.369,172.279 14.379,172.210 14.310 C 172.140 14.240,172.121 18.173,172.167 23.050 M13.580 32.417 C 13.580 42.317,13.600 46.342,13.625 41.362 C 13.649 36.382,13.649 28.282,13.625 23.362 C 13.600 18.442,13.580 22.517,13.580 32.417 M224.333 23.238 C 224.333 31.419,224.315 31.980,224.042 32.052 C 223.822 32.109,223.843 32.133,224.125 32.147 L 224.500 32.167 224.500 23.333 C 224.500 18.475,224.463 14.500,224.417 14.500 C 224.371 14.500,224.333 18.432,224.333 23.238 M383.080 32.417 C 383.080 42.317,383.100 46.342,383.125 41.362 C 383.149 36.382,383.149 28.282,383.125 23.362 C 383.100 18.442,383.080 22.517,383.080 32.417 M53.792 14.958 C 75.356 14.982,110.644 14.982,132.208 14.958 C 153.773 14.935,136.129 14.916,93.000 14.916 C 49.871 14.916,32.227 14.935,53.792 14.958 M264.639 14.958 C 286.211 14.982,321.461 14.982,342.972 14.958 C 364.483 14.935,346.833 14.916,303.750 14.916 C 260.667 14.916,243.067 14.935,264.639 14.958 M225.206 32.375 C 225.184 41.977,225.223 49.833,225.292 49.833 C 225.405 49.833,225.404 37.597,225.289 21.167 C 225.265 17.729,225.228 22.773,225.206 32.375 M382.127 32.417 C 382.103 41.996,382.140 49.833,382.208 49.833 C 382.277 49.833,382.333 41.996,382.333 32.417 C 382.333 22.837,382.297 15.000,382.252 15.000 C 382.207 15.000,382.150 22.838,382.127 32.417 M171.414 32.333 C 171.414 41.821,171.434 45.702,171.458 40.958 C 171.483 36.215,171.483 28.452,171.458 23.708 C 171.434 18.965,171.414 22.846,171.414 32.333 M176.629 30.792 C 176.725 31.759,176.806 31.830,176.820 30.958 C 176.827 30.523,176.773 30.167,176.700 30.167 C 176.627 30.167,176.595 30.448,176.629 30.792 M219.833 30.999 L 219.833 31.832 198.333 31.875 L 176.833 31.919 198.375 31.918 L 219.917 31.917 220.005 31.042 C 220.053 30.560,220.034 30.167,219.963 30.167 C 219.892 30.167,219.833 30.541,219.833 30.999 M224.411 41.500 C 224.411 46.404,224.432 48.410,224.458 45.958 C 224.484 43.506,224.484 39.494,224.458 37.042 C 224.432 34.590,224.411 36.596,224.411 41.500 M172.244 41.583 C 172.244 46.442,172.266 48.405,172.292 45.947 C 172.318 43.488,172.318 39.513,172.292 37.113 C 172.266 34.713,172.244 36.725,172.244 41.583 M176.734 33.064 C 176.686 33.191,176.671 33.623,176.701 34.023 C 176.755 34.727,176.760 34.719,176.837 33.791 C 176.918 32.819,176.894 32.648,176.734 33.064 M196.460 46.917 C 196.436 54.663,196.473 61.000,196.542 61.000 C 196.610 61.000,196.667 54.663,196.667 46.917 C 196.667 39.171,196.630 32.833,196.585 32.833 C 196.540 32.833,196.484 39.171,196.460 46.917 M197.580 46.833 C 197.580 54.579,197.600 57.748,197.625 53.875 C 197.650 50.002,197.650 43.665,197.625 39.792 C 197.600 35.919,197.580 39.087,197.580 46.833 M219.853 33.698 C 219.842 34.129,219.893 34.517,219.965 34.562 C 220.038 34.607,220.071 34.367,220.039 34.030 C 219.941 32.999,219.873 32.878,219.853 33.698 M53.389 50.625 C 75.190 50.648,110.815 50.648,132.555 50.625 C 154.296 50.602,136.458 50.583,92.917 50.583 C 49.375 50.583,31.587 50.602,53.389 50.625 M264.042 50.625 C 285.835 50.648,321.498 50.648,343.292 50.625 C 365.085 50.602,347.254 50.583,303.667 50.583 C 260.079 50.583,242.248 50.602,264.042 50.625 M197.566 63.403 C 197.329 64.019,197.571 64.583,198.083 64.607 L 198.583 64.632 198.109 64.553 C 197.667 64.480,197.638 64.429,197.696 63.821 C 197.762 63.138,197.719 63.003,197.566 63.403 M196.520 63.958 C 196.503 64.427,196.439 64.503,196.042 64.523 C 195.656 64.542,195.642 64.557,195.954 64.617 C 196.539 64.730,196.780 64.488,196.652 63.917 L 196.539 63.417 196.520 63.958 M197.500 65.065 C 197.500 65.101,197.757 65.160,198.072 65.197 C 198.386 65.234,198.607 65.204,198.562 65.132 C 198.481 65.001,197.500 64.940,197.500 65.065 M194.235 70.917 C 194.235 72.475,194.260 73.135,194.291 72.383 C 194.321 71.631,194.321 70.356,194.291 69.550 C 194.260 68.743,194.235 69.358,194.235 70.917 M199.199 69.468 L 199.167 70.685 197.000 70.634 C 195.808 70.606,194.833 70.640,194.833 70.708 C 194.833 70.777,195.811 70.833,197.005 70.833 C 199.488 70.833,199.380 70.905,199.291 69.316 L 199.231 68.250 199.199 69.468 M190.548 70.917 C 190.549 71.375,190.581 71.543,190.620 71.289 C 190.658 71.036,190.657 70.661,190.617 70.456 C 190.578 70.251,190.546 70.458,190.548 70.917 M203.539 71.000 C 203.539 71.321,203.573 71.452,203.615 71.292 C 203.657 71.131,203.657 70.869,203.615 70.708 C 203.573 70.548,203.539 70.679,203.539 71.000 M194.945 71.287 C 194.901 71.358,195.829 71.394,197.008 71.366 L 199.152 71.315 199.213 72.533 L 199.275 73.750 199.263 72.500 L 199.250 71.250 197.138 71.203 C 195.976 71.178,194.989 71.215,194.945 71.287 M190.690 72.500 C 190.690 72.637,190.755 72.900,190.833 73.083 C 190.924 73.293,190.977 73.324,190.977 73.167 C 190.977 73.029,190.912 72.767,190.833 72.583 C 190.743 72.373,190.690 72.342,190.690 72.500 M201.240 75.208 L 200.750 75.750 201.292 75.260 C 201.797 74.804,201.910 74.667,201.781 74.667 C 201.752 74.667,201.509 74.910,201.240 75.208 M192.500 75.552 C 192.500 75.581,192.744 75.825,193.042 76.094 L 193.583 76.583 193.094 76.042 C 192.638 75.537,192.500 75.423,192.500 75.552 M193.486 75.727 C 193.708 76.001,194.333 76.414,194.333 76.287 C 194.333 76.255,194.090 76.051,193.792 75.833 C 193.456 75.587,193.340 75.547,193.486 75.727 M196.625 76.951 C 196.831 76.991,197.169 76.991,197.375 76.951 C 197.581 76.911,197.412 76.879,197.000 76.879 C 196.588 76.879,196.419 76.911,196.625 76.951 M198.083 77.333 C 197.622 77.451,197.616 77.462,198.000 77.478 C 198.229 77.487,198.529 77.422,198.667 77.333 C 198.950 77.150,198.804 77.150,198.083 77.333 M195.333 80.860 C 195.333 80.937,195.595 81.000,195.916 81.000 L 196.498 81.000 196.542 94.208 L 196.586 107.417 196.585 94.169 L 196.583 80.922 195.958 80.821 C 195.615 80.765,195.333 80.782,195.333 80.860 M198.167 80.814 L 197.583 80.917 197.583 94.250 L 197.583 107.583 208.583 107.585 L 219.583 107.587 208.625 107.542 L 197.667 107.498 197.667 94.249 L 197.667 81.000 198.157 81.000 C 198.426 81.000,198.693 80.925,198.750 80.833 C 198.807 80.742,198.830 80.677,198.802 80.689 C 198.773 80.701,198.487 80.757,198.167 80.814 M171.875 89.847 C 172.146 90.005,172.169 90.635,172.207 98.800 L 172.247 107.583 172.292 98.852 C 172.336 90.095,172.312 89.657,171.771 89.672 C 171.668 89.675,171.715 89.753,171.875 89.847 M13.580 108.000 C 13.580 117.854,13.600 121.885,13.625 116.958 C 13.649 112.031,13.649 103.969,13.625 99.042 C 13.600 94.115,13.580 98.146,13.580 108.000 M224.333 98.903 C 224.333 105.736,224.288 107.657,224.125 107.723 C 224.001 107.773,224.034 107.812,224.208 107.820 C 224.483 107.833,224.500 107.307,224.500 99.000 C 224.500 94.142,224.463 90.167,224.417 90.167 C 224.371 90.167,224.333 94.098,224.333 98.903 M383.080 108.000 C 383.080 117.854,383.100 121.885,383.125 116.958 C 383.149 112.031,383.149 103.969,383.125 99.042 C 383.100 94.115,383.080 98.146,383.080 108.000 M53.722 90.625 C 75.340 90.648,110.665 90.648,132.222 90.625 C 153.779 90.602,136.092 90.583,92.917 90.583 C 49.742 90.583,32.104 90.602,53.722 90.625 M225.278 90.611 C 225.217 90.672,225.167 98.547,225.167 108.111 L 225.167 125.500 303.751 125.500 L 382.335 125.500 382.292 108.042 L 382.250 90.583 303.820 90.541 C 260.683 90.518,225.339 90.550,225.278 90.611 M382.167 108.000 L 382.167 125.333 303.750 125.333 L 225.333 125.333 225.333 108.000 L 225.333 90.667 303.750 90.667 L 382.167 90.667 382.167 108.000 M171.414 108.000 C 171.414 117.487,171.434 121.369,171.458 116.625 C 171.483 111.881,171.483 104.119,171.458 99.375 C 171.434 94.631,171.414 98.513,171.414 108.000 M176.446 105.963 C 176.554 106.032,176.672 106.387,176.710 106.752 C 176.777 107.410,176.778 107.409,176.805 106.625 C 176.828 105.971,176.783 105.834,176.542 105.836 C 176.349 105.838,176.316 105.881,176.446 105.963 M219.881 106.583 C 219.882 107.042,219.915 107.209,219.953 106.956 C 219.991 106.703,219.990 106.328,219.951 106.123 C 219.911 105.918,219.880 106.125,219.881 106.583 M181.792 107.625 C 184.473 107.651,188.860 107.651,191.542 107.625 C 194.223 107.599,192.029 107.578,186.667 107.578 C 181.304 107.578,179.110 107.599,181.792 107.625 M224.040 108.281 C 224.311 108.352,224.333 108.954,224.375 117.137 L 224.420 125.917 224.460 117.042 L 224.500 108.167 224.125 108.186 C 223.845 108.200,223.824 108.225,224.040 108.281 M172.167 117.283 C 172.121 122.160,172.140 126.093,172.210 126.024 C 172.279 125.954,172.317 121.964,172.293 117.157 L 172.250 108.417 172.167 117.283 M176.667 109.236 C 176.667 109.660,176.582 110.000,176.467 110.039 C 176.342 110.081,176.373 110.146,176.550 110.214 C 176.795 110.308,176.833 110.201,176.833 109.411 C 176.833 108.910,176.796 108.500,176.750 108.500 C 176.704 108.500,176.667 108.831,176.667 109.236 M219.862 109.292 C 219.838 110.026,219.880 110.166,220.125 110.164 C 220.319 110.162,220.351 110.120,220.220 110.036 C 220.112 109.968,219.993 109.575,219.957 109.164 L 219.892 108.417 219.862 109.292 M53.722 125.458 C 75.340 125.482,110.665 125.482,132.222 125.458 C 153.779 125.435,136.092 125.416,92.917 125.416 C 49.742 125.416,32.104 125.435,53.722 125.458 M13.809 126.209 C 13.877 126.277,49.480 126.315,92.925 126.292 L 171.917 126.250 92.800 126.167 C 49.286 126.121,13.740 126.140,13.809 126.209 M264.125 126.292 C 285.873 126.315,321.460 126.315,343.208 126.292 C 364.956 126.268,347.162 126.249,303.667 126.249 C 260.171 126.249,242.377 126.268,264.125 126.292 " stroke="none" fill="#acacac" fill-rule="evenodd"></path><path id="path3" d="M53.792 49.792 C 75.356 49.815,110.644 49.815,132.208 49.792 C 153.773 49.768,136.129 49.749,93.000 49.749 C 49.871 49.749,32.227 49.768,53.792 49.792 M264.639 49.792 C 286.211 49.815,321.461 49.815,342.972 49.792 C 364.483 49.768,346.833 49.749,303.750 49.749 C 260.667 49.749,243.067 49.768,264.639 49.792 M195.542 60.948 C 195.702 60.990,195.965 60.990,196.125 60.948 C 196.285 60.906,196.154 60.872,195.833 60.872 C 195.512 60.872,195.381 60.906,195.542 60.948 M197.960 60.951 C 198.168 60.991,198.468 60.990,198.627 60.948 C 198.786 60.906,198.617 60.874,198.250 60.875 C 197.883 60.877,197.753 60.911,197.960 60.951 M201.500 66.250 C 201.811 66.571,202.103 66.833,202.149 66.833 C 202.195 66.833,201.978 66.571,201.667 66.250 C 201.356 65.929,201.064 65.667,201.018 65.667 C 200.972 65.667,201.189 65.929,201.500 66.250 M199.902 71.000 C 199.902 72.604,199.927 73.260,199.957 72.458 C 199.988 71.656,199.988 70.344,199.957 69.542 C 199.927 68.740,199.902 69.396,199.902 71.000 " stroke="none" fill="#b4b4b4" fill-rule="evenodd"></path><path id="path4" d="M224.167 23.154 C 224.167 31.257,224.148 31.814,223.875 31.885 C 223.656 31.942,223.676 31.966,223.958 31.981 L 224.333 32.000 224.333 23.250 C 224.333 18.438,224.296 14.500,224.250 14.500 C 224.204 14.500,224.167 18.395,224.167 23.154 M383.167 32.450 C 383.121 42.368,383.140 50.427,383.209 50.358 C 383.278 50.288,383.316 42.173,383.292 32.324 L 383.250 14.417 383.167 32.450 M14.500 15.125 C 14.500 15.238,66.972 15.238,143.083 15.124 C 158.667 15.101,136.110 15.064,92.958 15.041 C 49.806 15.019,14.500 15.056,14.500 15.125 M225.410 15.208 C 225.367 15.323,225.350 23.142,225.375 32.583 L 225.418 49.750 225.459 32.458 L 225.500 15.167 303.749 15.167 L 381.998 15.167 382.042 32.417 L 382.086 49.667 382.085 32.375 L 382.083 15.083 303.787 15.041 C 241.236 15.008,225.474 15.042,225.410 15.208 M176.614 30.115 C 176.722 30.192,176.834 30.592,176.864 31.003 L 176.917 31.750 198.375 31.792 L 219.833 31.835 219.833 31.015 C 219.833 30.514,219.915 30.162,220.042 30.110 C 220.166 30.060,220.133 30.021,219.958 30.013 C 219.718 30.002,219.667 30.146,219.667 30.833 L 219.667 31.667 198.342 31.667 L 177.018 31.667 176.967 30.888 C 176.934 30.369,176.833 30.087,176.667 30.042 C 176.494 29.995,176.477 30.018,176.614 30.115 M224.167 41.557 C 224.213 46.430,224.311 50.510,224.385 50.625 C 224.492 50.791,240.506 50.825,303.718 50.792 L 382.917 50.750 303.760 50.708 C 240.688 50.675,224.576 50.624,224.471 50.458 C 224.398 50.344,224.337 46.336,224.336 41.552 C 224.334 36.767,224.277 32.818,224.208 32.776 C 224.140 32.733,224.121 36.685,224.167 41.557 M176.922 33.040 C 176.789 33.445,176.751 34.801,176.875 34.724 C 176.944 34.682,177.000 34.276,177.000 33.823 L 177.000 33.000 186.666 33.000 L 196.331 33.000 196.375 46.917 L 196.420 60.833 196.418 46.875 L 196.417 32.917 186.704 32.874 C 179.017 32.840,176.976 32.874,176.922 33.040 M208.625 32.958 L 219.667 33.002 219.667 33.825 C 219.667 34.677,219.887 35.014,220.223 34.676 C 220.371 34.527,220.350 34.506,220.134 34.588 C 219.894 34.679,219.844 34.562,219.801 33.806 L 219.750 32.917 208.667 32.915 L 197.583 32.913 208.625 32.958 M53.389 50.792 C 75.190 50.815,110.815 50.815,132.555 50.792 C 154.296 50.768,136.458 50.749,92.917 50.749 C 49.375 50.749,31.587 50.768,53.389 50.792 M196.333 63.821 C 196.333 64.146,196.236 64.334,196.042 64.385 C 195.822 64.442,195.843 64.466,196.125 64.481 C 196.446 64.497,196.500 64.416,196.500 63.917 C 196.500 63.596,196.463 63.333,196.417 63.333 C 196.371 63.333,196.333 63.553,196.333 63.821 M197.708 65.282 C 197.869 65.323,198.131 65.323,198.292 65.282 C 198.452 65.240,198.321 65.205,198.000 65.205 C 197.679 65.205,197.548 65.240,197.708 65.282 M194.890 69.250 C 194.891 69.983,194.920 70.263,194.956 69.871 C 194.991 69.479,194.990 68.879,194.954 68.537 C 194.919 68.196,194.890 68.517,194.890 69.250 M202.302 68.583 C 202.386 68.767,202.497 69.029,202.548 69.167 C 202.628 69.383,202.642 69.381,202.654 69.157 C 202.661 69.014,202.550 68.751,202.407 68.574 C 202.152 68.255,202.151 68.255,202.302 68.583 M203.357 69.000 C 203.357 69.137,203.421 69.400,203.500 69.583 C 203.590 69.793,203.643 69.824,203.643 69.667 C 203.643 69.529,203.579 69.267,203.500 69.083 C 203.410 68.873,203.357 68.842,203.357 69.000 M191.354 69.750 C 191.340 69.933,191.290 70.271,191.243 70.500 L 191.157 70.917 191.336 70.508 C 191.434 70.283,191.484 69.945,191.447 69.758 C 191.380 69.425,191.378 69.425,191.354 69.750 M190.438 70.042 C 190.312 70.514,190.332 71.459,190.480 71.989 C 190.543 72.214,190.591 71.789,190.588 71.031 C 190.583 69.521,190.581 69.509,190.438 70.042 M196.125 70.623 C 196.698 70.656,197.635 70.656,198.208 70.623 C 198.781 70.591,198.313 70.564,197.167 70.564 C 196.021 70.564,195.552 70.591,196.125 70.623 M196.049 71.457 C 196.671 71.489,197.646 71.489,198.215 71.457 C 198.784 71.424,198.275 71.398,197.083 71.398 C 195.892 71.398,195.426 71.425,196.049 71.457 M194.888 72.750 C 194.889 73.392,194.919 73.634,194.955 73.288 C 194.991 72.942,194.990 72.417,194.954 72.121 C 194.917 71.825,194.887 72.108,194.888 72.750 M192.834 76.057 C 193.063 76.317,193.400 76.608,193.583 76.702 C 193.934 76.883,193.924 76.872,193.001 76.082 L 192.418 75.583 192.834 76.057 M196.455 76.787 C 196.750 76.824,197.275 76.824,197.621 76.788 C 197.967 76.752,197.725 76.722,197.083 76.721 C 196.442 76.721,196.159 76.750,196.455 76.787 M196.375 78.083 C 196.377 78.450,196.411 78.580,196.451 78.373 C 196.491 78.166,196.490 77.866,196.448 77.706 C 196.406 77.547,196.374 77.717,196.375 78.083 M195.250 80.667 C 195.075 80.951,195.331 81.167,195.843 81.167 L 196.333 81.167 196.333 94.250 L 196.333 107.333 186.675 107.333 L 177.017 107.333 176.951 106.458 L 176.885 105.583 176.901 106.500 L 176.917 107.417 186.709 107.460 L 196.502 107.503 196.459 94.293 L 196.417 81.083 195.862 81.030 C 195.461 80.992,195.332 80.911,195.398 80.738 C 195.503 80.466,195.404 80.418,195.250 80.667 M198.250 81.000 L 197.583 81.119 198.292 81.143 C 198.681 81.156,199.000 81.092,199.000 81.000 C 199.000 80.908,198.981 80.844,198.958 80.857 C 198.935 80.870,198.617 80.934,198.250 81.000 M53.389 89.625 C 75.190 89.648,110.815 89.648,132.555 89.625 C 154.296 89.602,136.458 89.583,92.917 89.583 C 49.375 89.583,31.587 89.602,53.389 89.625 M303.650 89.625 C 366.563 89.658,382.771 89.710,382.983 89.875 C 383.220 90.060,383.224 90.050,383.021 89.792 C 382.804 89.515,378.856 89.502,303.688 89.541 L 224.583 89.583 303.650 89.625 M224.167 98.867 C 224.121 103.698,224.140 107.593,224.210 107.524 C 224.279 107.454,224.317 103.501,224.293 98.740 L 224.250 90.083 224.167 98.867 M383.208 108.008 C 383.176 121.682,383.119 125.981,382.967 126.133 C 382.668 126.432,224.835 126.424,224.500 126.125 C 224.301 125.948,224.299 125.960,224.487 126.208 C 224.840 126.675,382.636 126.661,383.058 126.194 C 383.313 125.913,383.331 124.468,383.292 107.986 L 383.248 90.083 383.208 108.008 M53.722 90.792 C 75.340 90.815,110.665 90.815,132.222 90.792 C 153.779 90.768,136.092 90.749,92.917 90.749 C 49.742 90.749,32.104 90.768,53.722 90.792 M225.410 90.875 C 225.366 90.990,225.350 98.771,225.374 108.167 L 225.417 125.250 303.750 125.250 L 382.083 125.250 382.126 107.958 L 382.168 90.667 303.829 90.667 C 241.311 90.667,225.474 90.709,225.410 90.875 M382.000 108.000 L 382.000 125.167 303.750 125.167 L 225.500 125.167 225.500 108.000 L 225.500 90.833 303.750 90.833 L 382.000 90.833 382.000 108.000 M219.697 106.374 L 219.667 107.331 208.625 107.375 L 197.583 107.419 208.630 107.460 C 217.885 107.493,219.691 107.463,219.765 107.270 C 219.814 107.144,219.825 106.676,219.790 106.229 L 219.727 105.417 219.697 106.374 M223.957 108.470 C 224.116 108.571,224.174 110.588,224.208 117.259 L 224.253 125.917 224.293 117.125 C 224.331 108.847,224.316 108.333,224.042 108.336 C 223.835 108.338,223.810 108.377,223.957 108.470 M176.885 109.417 C 176.886 109.967,176.917 110.172,176.954 109.872 C 176.991 109.572,176.990 109.122,176.952 108.872 C 176.914 108.622,176.884 108.867,176.885 109.417 M219.697 109.375 C 219.671 110.189,219.711 110.333,219.958 110.331 C 220.153 110.329,220.185 110.287,220.052 110.203 C 219.944 110.133,219.826 109.703,219.791 109.247 L 219.727 108.417 219.697 109.375 M53.722 125.292 C 75.340 125.315,110.665 125.315,132.222 125.292 C 153.779 125.268,136.092 125.249,92.917 125.249 C 49.742 125.249,32.104 125.268,53.722 125.292 M13.645 126.208 C 13.863 126.485,17.807 126.498,92.895 126.459 L 171.917 126.417 92.934 126.375 C 30.087 126.342,13.896 126.290,13.684 126.125 C 13.447 125.940,13.443 125.950,13.645 126.208 " stroke="none" fill="#d4d4d4" fill-rule="evenodd"></path></g></svg>